Coordinates
version=1
nRows=12
nColumns=24
inDegrees=yes

Units are S.I. units (second, meters, Newtons, ...)
Angles are in degrees.

endheader
time	pelvis_tilt	pelvis_list	pelvis_rotation	pelvis_tx	pelvis_ty	pelvis_tz	hip_flexion_r	hip_adduction_r	hip_rotation_r	knee_angle_r	ankle_angle_r	subtalar_angle_r	mtp_angle_r	hip_flexion_l	hip_adduction_l	hip_rotation_l	knee_angle_l	ankle_angle_l	subtalar_angle_l	mtp_angle_l	lumbar_extension	lumbar_bending	lumbar_rotation
      4.54000000	     60.13175484	      4.05131856	      8.75995684	      0.78077415	      1.08487425	     -0.27413222	     -3.82917524	    -11.50184262	     -3.59899208	    -51.40149882	    -16.82786508	      0.69043695	     48.30984768	      9.71636349	    -19.39825499	      7.60127623	    -69.31718220	     -6.04839574	     12.34897369	    -42.41990814	      0.00000000	      0.00000000	      0.00000000
      4.55000000	     60.11168658	      4.01386460	      8.70060196	      0.78105397	      1.08491633	     -0.27393712	     -3.84261910	    -11.47947947	     -3.58746552	    -51.22140614	    -16.81873692	      0.68976137	     47.93981167	      9.69690701	    -19.34524644	      7.51653906	    -69.08562525	     -6.17509302	     11.94680117	    -42.34243996	      0.00000000	      0.00000000	      0.00000000
      4.56000000	     60.09356599	      3.98222308	      8.64144835	      0.78128292	      1.08492940	     -0.27373465	     -3.84526844	    -11.46448119	     -3.58801237	    -51.06746352	    -16.80973194	      0.68244757	     47.62753267	      9.67558760	    -19.29895147	      7.39336660	    -68.83447649	     -6.28042957	     11.62841238	    -42.27669436	      0.00000000	      0.00000000	      0.00000000
      4.57000000	     60.08024588	      3.95584997	      8.58305385	      0.78146543	      1.08493946	     -0.27353027	     -3.83899062	    -11.45559759	     -3.59844127	    -50.93944263	    -16.80139921	      0.66538439	     47.37591722	      9.64905605	    -19.25902022	      7.23576985	    -68.56219111	     -6.35347933	     11.40693612	    -42.20770211	      0.00000000	      0.00000000	      0.00000000
      4.58000000	     60.07460093	      3.93325861	      8.52696930	      0.78159032	      1.08495879	     -0.27333132	     -3.82702831	    -11.45188211	     -3.61577043	    -50.83769468	    -16.79370066	      0.63847827	     47.18310188	      9.61693069	    -19.22478329	      7.04503018	    -68.26681780	     -6.38889846	     11.28752189	    -42.12352519	      0.00000000	      0.00000000	      0.00000000
      4.59000000	     60.07806488	      3.91362249	      8.47535644	      0.78164410	      1.08498124	     -0.27314842	     -3.81222199	    -11.45189726	     -3.63715147	    -50.76257810	    -16.78669738	      0.60461883	     47.04351419	      9.57948758	    -19.19558824	      6.82116214	    -67.94779827	     -6.38744291	     11.26721551	    -42.01683440	      0.00000000	      0.00000000	      0.00000000
      4.60000000	     60.09069118	      3.89742833	      8.42986326	      0.78162698	      1.08499552	     -0.27299119	     -3.79585481	    -11.45364231	     -3.66047762	    -50.71392924	    -16.78071710	      0.56869298	     46.94934405	      9.53678955	    -19.17081254	      6.56489457	    -67.60650026	     -6.35495370	     11.33624209	    -41.88563149	      0.00000000	      0.00000000	      0.00000000
      4.61000000	     60.11184791	      3.88538471	      8.39109604	      0.78154874	      1.08499675	     -0.27285881	     -3.77792581	    -11.45562916	     -3.68433493	    -50.69106645	    -16.77593340	      0.53592746	     46.89219085	      9.48914162	    -19.14960510	      6.27879329	    -67.24556370	     -6.30029045	     11.48018622	    -41.73301662	      0.00000000	      0.00000000	      0.00000000
      4.62000000	     60.14068301	      3.87751083	      8.35880450	      0.78142129	      1.08498847	     -0.27274374	     -3.75806827	    -11.45763082	     -3.70777234	    -50.69293311	    -16.77183307	      0.51030231	     46.86460320	      9.43773173	    -19.13068371	      5.96718661	    -66.86816837	     -6.23292371	     11.68237943	    -41.56610370	      0.00000000	      0.00000000	      0.00000000
      4.63000000	     60.17602980	      3.87336209	      8.33240289	      0.78125437	      1.08497608	     -0.27264172	     -3.73628195	    -11.46047535	     -3.73018196	    -50.71803411	    -16.76705054	      0.49364420	     46.86123952	      9.38464800	    -19.11240408	      5.63538989	    -66.47796405	     -6.16091680	     11.92595362	    -41.39433780	      0.00000000	      0.00000000	      0.00000000
      4.64000000	     60.21635069	      3.87273210	      8.31131130	      0.78105495	      1.08496309	     -0.27255648	     -3.71318289	    -11.46539493	     -3.75124634	    -50.76419570	    -16.75977395	      0.48559717	     46.87945115	      9.33257575	    -19.09296595	      5.28892126	    -66.07932583	     -6.08974754	     12.19521989	    -41.22754783	      0.00000000	      0.00000000	      0.00000000
      4.65000000	     60.25998477	      3.87586174	      8.29517777	      0.78083169	      1.08494987	     -0.27249620	     -3.68983189	    -11.47332451	     -3.77089993	    -50.82832561	    -16.74862320	      0.48429315	     46.91921652	      9.28441437	    -19.07037903	      4.93290340	    -65.67744711	     -6.02203414	     12.47623631	    -41.07409936	      0.00000000	      0.00000000	      0.00000000
